<?xml version="1.0" encoding="utf-8"?>
<!-- Generator: Adobe Illustrator 22.0.1, SVG Export Plug-In . SVG Version: 6.00 Build 0)  -->
<svg version="1.1" id="Layer_1" xmlns="http://www.w3.org/2000/svg" xmlns:xlink="http://www.w3.org/1999/xlink" x="0px" y="0px"
	 viewBox="0 0 800 800" style="enable-background:new 0 0 800 800;" xml:space="preserve">
<style type="text/css">
	.st0{fill:#219261;}
	.st1{fill:#FFFFFF;}
	.st2{enable-background:new    ;}
</style>
<g>
	<path id="Oval-1_1_" class="st0" d="M400,563.2c151.6,0,274.5-122.9,274.5-274.5S551.6,14.2,400,14.2S125.5,137.1,125.5,288.7
		S248.4,563.2,400,563.2z"/>
	<path id="Fill-5" class="st1" d="M418.9,269.8c-5.1-0.8-21.7-3.8-35.7-4.1c2.3-28.5,6.1-61.2,12.7-95.8c3.2-0.3,6.5-0.5,9.9-0.5
		c28.7,0,48,18.9,48.3,45.5C454.5,248.5,418.9,269.8,418.9,269.8L418.9,269.8z M327.5,350.1c-12.3,2-24.6-17.6-24.6-52
		c0-32.7,11.6-73.7,37.2-100.5C325.5,259,346.9,346.9,327.5,350.1L327.5,350.1z M541.9,343.3c-9.1-55.9-75.9-63.6-75.9-63.6
		c15.6-6.1,46.4-34,47.9-66.4c2-42.6-36.1-82.4-103.7-82.4c-84,0-148.1,62.8-153.3,154.1c-0.8,14.6,0.7,53.9,15.3,82.7
		c17.2,39.7,46.3,68,76.1,61.5c26.2-5.7,32.4-30.1,32.4-58.6c0-4.3-1.6-34.9,0.8-80c2.1,5.3,5.5,10.2,10.2,13.2
		c13.5,3.7,27.9-1.2,38.9-7c0,0,36.9,9.8,36.9,38.1c0,16-13.2,27.9-29.5,29.1c-22.1,1.6-36.1-9-36.1-9c-7,1.2-17.6,15.6-17.6,26.6
		c0,23.4,28.7,55.3,83.2,51.6C510.9,430.4,550.9,398,541.9,343.3z"/>
</g>
<g>
	<g class="st2">
		<path class="st0" d="M125,664.4v-62.5c0-2.4,0.6-4.3,2-5.9c1.4-1.5,3.1-2.2,5.3-2.2c1.4,0,2.6,0.3,3.8,1.1c1.1,0.6,2,1.6,2.6,2.9
			c0.6,1.3,1,2.6,1,4.2v19.9c1.8-1.6,4-2.9,6.5-3.7s5-1.3,7.4-1.3c5,0,9.3,1.4,12.8,4.1s6.2,6.3,8,10.8c1.8,4.4,2.8,9.1,2.8,14.1
			c0,4.7-1,9.1-3,13.3c-2,4.2-4.9,7.7-8.6,10.3c-3.7,2.6-7.9,3.9-12.6,3.9c-2.6,0-5.3-0.6-7.7-1.8c-2.4-1.2-4.3-2.9-5.7-5
			c-1,4-3.4,6-7.3,6c-2.2,0-3.9-0.7-5.3-2.2C125.7,668.8,125,666.8,125,664.4z M139.7,644.6c0,3.9,1,7.5,3,10.6
			c2,3.1,4.8,4.7,8.5,4.7c2.3,0,4.4-0.7,6.2-2.2c1.8-1.5,3.1-3.3,3.9-5.5c0.8-2.2,1.3-4.5,1.3-7c0-2.4-0.4-4.9-1.3-7.1
			c-0.8-2.3-2.1-4.1-3.9-5.6c-1.7-1.5-3.8-2.2-6.2-2.2c-2.4,0-4.5,0.6-6.3,2c-1.8,1.4-3.1,3.2-3.9,5.3
			C140.1,639.7,139.7,642,139.7,644.6z"/>
		<path class="st0" d="M229.4,649.8h-31.1c0.5,3.5,2,6.1,4.5,7.9c2.5,1.8,5.6,2.6,9.2,2.6c2.2,0,4.1-0.3,5.6-1.1
			c1.6-0.7,3.5-1.7,5.8-3c2.3-1.3,4-1.9,5.1-1.9c1,0,2,0.3,2.9,1c1,0.6,1.7,1.4,2.2,2.3c0.5,1,0.8,2,0.8,3.1c0,1.5-0.7,3.1-2.1,4.5
			c-1.4,1.5-3.3,2.9-5.6,4c-2.3,1.2-5,2.1-7.9,2.9s-5.7,1.1-8.3,1.1c-5.3,0-10.1-1.2-14.3-3.6c-4.2-2.4-7.4-5.8-9.7-10
			c-2.3-4.2-3.4-9.1-3.4-14.5c0-3.6,0.6-7.2,2-10.6c1.3-3.4,3.2-6.5,5.5-9.2c2.3-2.6,5.1-4.8,8.4-6.2s6.8-2.2,10.5-2.2
			c3.8,0,7.3,0.7,10.6,2.3c3.3,1.6,6,3.6,8.4,6.2c2.3,2.5,4,5.4,5.4,8.6c1.3,3.2,1.9,6.2,1.9,9.4
			C235.8,647.7,233.6,649.8,229.4,649.8z M197.9,640h23.3c-0.4-3.4-1.6-6-3.7-8c-2-2-4.8-3.1-7.9-3.1c-3.2,0-5.7,1.1-7.8,3.2
			C199.6,634.1,198.3,636.8,197.9,640z"/>
		<path class="st0" d="M294.2,626.9v36.2c0,2.9-0.4,5.2-1.2,6.9c-0.7,1.8-2.8,2.6-5.8,2.6c-2,0-3.5-0.5-4.5-1.6s-1.9-2.5-2.4-4.7
			c-3.9,4.5-8.5,6.8-14,6.8c-4.4,0-8.6-1.2-12.3-3.6s-6.6-5.7-8.7-10c-2.1-4.3-3.2-9.1-3.2-14.5c0-5.2,1.1-9.9,3.2-14.3
			c2.1-4.3,5.1-7.7,8.8-10.3c3.7-2.5,7.7-3.7,12.2-3.7c2.8,0,5.4,0.5,7.8,1.7c2.4,1.2,4.5,2.8,6.1,5c0.2-1.8,1-3.3,2.3-4.3
			c1.4-1.2,2.9-1.7,4.7-1.7c3.1,0,5.1,0.8,5.8,2.6C293.7,621.7,294.2,624.1,294.2,626.9z M256.6,645c0,2.4,0.4,4.9,1.3,7.1
			c0.8,2.2,2.2,4.1,3.9,5.5c1.7,1.4,3.8,2.1,6.3,2.1c3.6,0,6.3-1.5,8.4-4.4c2-3,3-6.3,3-10.3c0-2.4-0.4-4.9-1.3-7.1
			c-0.8-2.3-2.1-4.2-3.9-5.6c-1.8-1.4-3.8-2.2-6.1-2.2c-2.4,0-4.5,0.7-6.3,2.1c-1.8,1.5-3.1,3.3-3.9,5.6
			C257,640.2,256.6,642.6,256.6,645z"/>
		<path class="st0" d="M305.6,664.4v-38.9c0-2.4,0.6-4.3,2-5.9c1.4-1.5,3.1-2.2,5.3-2.2c1.9,0,3.4,0.5,4.5,1.5
			c1.2,1,1.9,2.3,2.1,3.9c2.9-4,7.5-6,14.1-6c3.8,0,7.3,0.7,10.3,2.3c3.1,1.6,5.4,3.8,7.1,6.8c1.7,3,2.5,6.5,2.5,10.6v28
			c0,1.6-0.3,3-1,4.2c-0.6,1.3-1.5,2.2-2.6,2.9c-1.2,0.6-2.3,1.1-3.8,1.1c-2.2,0-3.9-0.7-5.3-2.2c-1.4-1.5-2-3.5-2-5.9v-25.5
			c0-3.3-0.8-5.7-2.6-7.5c-1.8-1.7-4.1-2.5-6.9-2.5c-1.9,0-3.6,0.4-5,1.3c-1.4,0.8-2.5,2-3.2,3.6c-0.7,1.5-1.1,3.2-1.1,5.2v25.5
			c0,1.6-0.3,3-1,4.2c-0.6,1.3-1.5,2.2-2.6,2.9c-1.2,0.6-2.3,1.1-3.8,1.1c-2.2,0-3.9-0.7-5.3-2.2
			C306.2,668.8,305.6,666.8,305.6,664.4z"/>
		<path class="st0" d="M402,627.2c0,1.7-0.5,3.2-1.7,4.5c-1.2,1.3-2.5,2-4.2,2c-0.7,0-2.2-0.5-4.3-1.5c-2.1-1-3.8-1.7-5-2.1
			c-1.2-0.4-2.4-0.7-3.9-0.7c-1.4,0-2.6,0.3-3.6,1.1c-1,0.7-1.4,1.7-1.4,3.1c0,1.4,1.5,2.8,4.3,4c2.9,1.3,6,2.5,9.2,3.9
			c3.3,1.4,6,3.2,8.4,5.4c2.3,2.2,3.5,5.3,3.5,9.1c0,3.3-0.8,6.2-2.5,8.8c-1.7,2.6-4.1,4.7-7.4,6.1c-3.2,1.5-6.8,2.2-10.9,2.2
			c-2.9,0-5.9-0.5-9.1-1.5c-3.2-1-5.9-2.3-8-4.1c-2.2-1.8-3.3-3.7-3.3-5.7c0-1.3,0.6-2.8,1.8-4.2s2.6-2.2,4.5-2.2
			c1.3,0,2.4,0.2,3.5,0.6c1,0.4,2.2,1.1,3.7,1.9c1.5,0.8,2.9,1.5,3.9,1.9c1.1,0.4,2.4,0.6,4,0.6c2.1,0,3.6-0.3,4.4-1.1
			c0.8-0.6,1.3-1.7,1.3-3.2c0-1.4-1.4-2.8-4.2-3.9c-2.9-1.3-5.9-2.5-9.3-3.9c-3.4-1.4-6.2-3.2-8.5-5.5c-2.3-2.3-3.4-5.3-3.4-9.1
			c0-3.4,0.8-6.3,2.5-8.9c1.7-2.5,4-4.5,7.1-6c3-1.5,6.5-2.1,10.3-2.1c2.6,0,5.4,0.4,8.3,1.2s5.2,2,7.1,3.6
			C400.9,623.1,402,625,402,627.2z"/>
	</g>
	<g class="st2">
		<path d="M428.6,666.4l-14.7-37.8c-0.6-1.6-0.8-3-0.8-4.2c0-2.2,0.7-4,2.2-5.3c1.5-1.3,3.3-1.9,5.4-1.9c3.2,0,5.3,1.7,6.5,5.2
			l9.3,28.8h0.2l9.4-28.8c1.1-3.5,3.3-5.2,6.5-5.2c2.1,0,3.9,0.6,5.4,1.9c1.5,1.3,2.2,3,2.2,5.3c0,1.3-0.3,2.6-0.8,4.2l-14.7,37.8
			c-0.7,2.1-1.7,3.7-2.9,4.7c-1.1,1-2.8,1.5-5.1,1.5c-2.3,0-3.9-0.5-5.1-1.5C430.5,670.1,429.5,668.6,428.6,666.4z"/>
		<path d="M474.4,595.4c1.5,0,2.9,0.4,4,1.2c1.3,0.7,2.2,1.8,3.1,3c0.7,1.3,1.2,2.5,1.2,3.9c0,2.3-0.8,4.2-2.4,5.9
			c-1.6,1.7-3.5,2.5-5.8,2.5c-2.1,0-4-0.8-5.7-2.5c-1.7-1.7-2.5-3.7-2.5-5.8c0-2.1,0.8-3.9,2.5-5.6
			C470.4,596.2,472.3,595.4,474.4,595.4z M467.1,664.4v-38.9c0-2.4,0.6-4.3,2-5.9c1.4-1.5,3.1-2.2,5.3-2.2c1.4,0,2.6,0.3,3.8,1.1
			c1.1,0.6,2,1.6,2.6,2.9c0.6,1.3,1,2.6,1,4.2v38.9c0,1.6-0.3,3-1,4.2c-0.6,1.3-1.5,2.2-2.6,2.9c-1.2,0.6-2.3,1.1-3.8,1.1
			c-2.2,0-3.9-0.7-5.3-2.2C467.8,668.8,467.1,666.8,467.1,664.4z"/>
		<path d="M529.8,627.2c0,1.7-0.5,3.2-1.7,4.5c-1.2,1.3-2.5,2-4.2,2c-0.7,0-2.2-0.5-4.3-1.5c-2.1-1-3.8-1.7-5-2.1
			c-1.2-0.4-2.4-0.7-3.9-0.7c-1.4,0-2.6,0.3-3.5,1.1c-1,0.7-1.4,1.7-1.4,3.1c0,1.4,1.5,2.8,4.3,4c2.9,1.3,6,2.5,9.2,3.9
			c3.3,1.4,6,3.2,8.4,5.4s3.5,5.3,3.5,9.1c0,3.3-0.8,6.2-2.5,8.8c-1.7,2.6-4.1,4.7-7.4,6.1c-3.2,1.5-6.8,2.2-10.9,2.2
			c-2.9,0-5.9-0.5-9.1-1.5c-3.2-1-5.9-2.3-8-4.1c-2.2-1.8-3.3-3.7-3.3-5.7c0-1.3,0.6-2.8,1.8-4.2s2.6-2.2,4.5-2.2
			c1.3,0,2.4,0.2,3.5,0.6c1,0.4,2.2,1.1,3.7,1.9c1.5,0.8,2.9,1.5,3.9,1.9c1.1,0.4,2.4,0.6,4,0.6c2.1,0,3.6-0.3,4.4-1.1
			c0.8-0.6,1.3-1.7,1.3-3.2c0-1.4-1.4-2.8-4.2-3.9c-2.9-1.3-5.9-2.5-9.3-3.9c-3.4-1.4-6.2-3.2-8.5-5.5c-2.3-2.3-3.4-5.3-3.4-9.1
			c0-3.4,0.8-6.3,2.5-8.9c1.7-2.5,4-4.5,7.1-6c3-1.5,6.5-2.1,10.3-2.1c2.6,0,5.4,0.4,8.3,1.2c2.9,0.8,5.2,2,7.1,3.6
			C528.8,623.1,529.8,625,529.8,627.2z"/>
		<path d="M539.4,651.8v-26.3c0-2.4,0.6-4.3,2-5.9c1.4-1.5,3.1-2.2,5.3-2.2c1.4,0,2.6,0.3,3.8,1.1c1.1,0.6,2,1.6,2.6,2.9
			c0.6,1.3,1,2.6,1,4.2v26c0,2.9,1,5.2,2.8,6.9c1.9,1.7,4,2.5,6.7,2.5c1.7,0,3.3-0.4,4.8-1.2c1.4-0.7,2.5-1.8,3.5-3.3
			c0.8-1.4,1.3-3.2,1.3-5.1v-26c0-2.4,0.6-4.3,2-5.9c1.4-1.5,3.1-2.2,5.3-2.2c1.4,0,2.6,0.3,3.8,1.1c1.1,0.6,2,1.6,2.6,2.9
			s1,2.6,1,4.2v26.3c0,4.3-1,8.1-2.8,11.3c-1.9,3.2-4.7,5.7-8.3,7.4c-3.7,1.7-8,2.6-13,2.6c-7.6,0-13.5-1.9-17.8-5.7
			C541.5,663.6,539.4,658.3,539.4,651.8z"/>
		<path d="M649,626.9v36.2c0,2.9-0.4,5.2-1.2,6.9c-0.7,1.8-2.8,2.6-5.8,2.6c-2,0-3.5-0.5-4.5-1.6s-1.9-2.5-2.4-4.7
			c-3.9,4.5-8.5,6.8-14,6.8c-4.4,0-8.6-1.2-12.3-3.6c-3.7-2.4-6.6-5.7-8.7-10c-2.1-4.2-3.2-9.1-3.2-14.5c0-5.2,1.1-9.9,3.2-14.3
			s5.1-7.7,8.8-10.3c3.7-2.5,7.7-3.7,12.2-3.7c2.8,0,5.4,0.5,7.8,1.7c2.4,1.2,4.5,2.8,6.1,5c0.2-1.8,1-3.3,2.3-4.3
			c1.4-1.2,2.9-1.7,4.7-1.7c3.1,0,5.1,0.8,5.8,2.6C648.6,621.7,649,624.1,649,626.9z M611.5,645c0,2.4,0.4,4.9,1.3,7.1
			c0.8,2.2,2.2,4.1,3.9,5.5c1.7,1.4,3.8,2.1,6.3,2.1c3.6,0,6.3-1.5,8.4-4.4c2-3,3-6.3,3-10.3c0-2.4-0.4-4.9-1.3-7.1
			c-0.8-2.3-2.1-4.2-3.9-5.6c-1.8-1.4-3.8-2.2-6.1-2.2c-2.4,0-4.5,0.7-6.3,2.1c-1.8,1.5-3.1,3.3-3.9,5.6
			C611.9,640.2,611.5,642.6,611.5,645z"/>
		<path d="M660.3,664.4v-62.5c0-2.4,0.6-4.3,2-5.9c1.4-1.5,3.1-2.2,5.3-2.2c1.4,0,2.6,0.3,3.8,1.1c1.1,0.6,2,1.6,2.6,2.9
			s1,2.6,1,4.2v62.5c0,1.6-0.3,3-1,4.2c-0.6,1.3-1.5,2.2-2.6,2.9c-1.2,0.6-2.3,1.1-3.8,1.1c-2.2,0-3.9-0.7-5.3-2.2
			C660.9,668.8,660.3,666.8,660.3,664.4z"/>
	</g>
</g>
<g>
	<g class="st2">
		<path d="M155.4,765.1v-62.5c0-2.4,0.6-4.3,2-5.9c1.4-1.5,3.1-2.2,5.3-2.2c1.4,0,2.6,0.3,3.8,1.1c1.1,0.6,2,1.6,2.6,2.9
			c0.6,1.3,1,2.6,1,4.2v19.9h0.2c1.4-1.7,3.3-3,5.8-3.8c2.4-0.8,5-1.3,7.5-1.3c3.8,0,7.3,0.7,10.3,2.3c3.1,1.6,5.4,3.8,7.1,6.8
			c1.7,3,2.5,6.5,2.5,10.6v28c0,1.6-0.3,3-1,4.2c-0.6,1.3-1.5,2.2-2.6,2.9c-1.2,0.6-2.3,1.1-3.8,1.1c-2.2,0-3.9-0.7-5.3-2.2
			c-1.4-1.5-2-3.5-2-5.9v-25.5c0-3.3-0.8-5.7-2.6-7.5c-1.8-1.8-4-2.5-6.9-2.5c-1.9,0-3.6,0.4-5,1.3c-1.4,0.8-2.5,2-3.2,3.6
			c-0.7,1.5-1.1,3.2-1.1,5.2v25.5c0,1.6-0.3,3-1,4.2c-0.6,1.3-1.5,2.2-2.6,2.9c-1.2,0.6-2.3,1.1-3.8,1.1c-2.2,0-3.9-0.7-5.3-2.2
			C156.1,769.5,155.4,767.5,155.4,765.1z"/>
		<path d="M239,717.5c3.8,0,7.3,0.7,10.6,2.3s6,3.6,8.4,6.2c2.3,2.6,4.1,5.6,5.4,9c1.3,3.4,1.9,7,1.9,10.7c0,3.8-0.6,7.4-1.9,10.8
			c-1.3,3.4-3.1,6.5-5.3,9c-2.2,2.5-5.1,4.5-8.4,6.1c-3.3,1.5-6.9,2.2-10.7,2.2c-5.1,0-9.6-1.3-13.5-3.8c-3.9-2.5-7.1-5.9-9.3-10.3
			c-2.2-4.3-3.3-9-3.3-14.1c0-3.6,0.6-7.2,1.9-10.6c1.3-3.4,3.1-6.5,5.4-9.1c2.3-2.6,5.2-4.8,8.4-6.3
			C231.8,718.2,235.3,717.5,239,717.5z M239,730.8c-2.4,0-4.5,0.7-6.3,2.1c-1.8,1.5-3.1,3.3-3.9,5.6s-1.3,4.7-1.3,7.2
			c0,2.4,0.4,4.9,1.3,7.1c0.8,2.2,2.2,4.1,3.9,5.5c1.7,1.4,3.8,2.1,6.3,2.1s4.7-0.7,6.3-2.1s3.1-3.3,3.9-5.5
			c0.8-2.2,1.3-4.7,1.3-7.1c0-2.4-0.4-4.9-1.3-7.1c-0.8-2.3-2.1-4.2-3.9-5.6S241.6,730.8,239,730.8z"/>
		<path d="M298.6,717.5c3.8,0,7.3,0.7,10.6,2.3s6,3.6,8.4,6.2c2.3,2.6,4.1,5.6,5.4,9c1.3,3.4,1.9,7,1.9,10.7c0,3.8-0.6,7.4-1.9,10.8
			c-1.3,3.4-3.1,6.5-5.3,9c-2.2,2.5-5.1,4.5-8.4,6.1c-3.3,1.5-6.9,2.2-10.7,2.2c-5.1,0-9.6-1.3-13.5-3.8c-3.9-2.5-7.1-5.9-9.3-10.3
			c-2.2-4.3-3.3-9-3.3-14.1c0-3.6,0.6-7.2,1.9-10.6c1.3-3.4,3.1-6.5,5.4-9.1c2.3-2.6,5.2-4.8,8.4-6.3
			C291.4,718.2,294.9,717.5,298.6,717.5z M298.6,730.8c-2.4,0-4.5,0.7-6.3,2.1c-1.8,1.5-3.1,3.3-3.9,5.6s-1.3,4.7-1.3,7.2
			c0,2.4,0.4,4.9,1.3,7.1c0.8,2.2,2.2,4.1,3.9,5.5s3.8,2.1,6.3,2.1s4.7-0.7,6.3-2.1c1.7-1.4,3.1-3.3,3.9-5.5
			c0.8-2.2,1.3-4.7,1.3-7.1c0-2.4-0.4-4.9-1.3-7.1c-0.8-2.3-2.1-4.2-3.9-5.6C303.3,731.5,301.1,730.8,298.6,730.8z"/>
		<path d="M334.3,765.1v-62.5c0-2.4,0.6-4.3,2-5.9c1.4-1.5,3.1-2.2,5.3-2.2c1.4,0,2.6,0.3,3.8,1.1c1.1,0.6,2,1.6,2.6,2.9
			c0.6,1.3,1,2.6,1,4.2v34.1l16-15.6c2.2-2.1,4.4-3.2,6.7-3.2c1.8,0,3.2,0.6,4.4,2c1.2,1.4,1.8,2.9,1.8,4.5c0,2.1-1,4-2.9,5.8
			l-13,11.6l17.1,20.1c1.3,1.4,1.8,3,1.8,4.9c0,1.9-0.6,3.6-2,5c-1.4,1.4-3,2-4.9,2c-1.3,0-2.4-0.3-3.5-1.1s-2.2-1.9-3.6-3.5
			l-17.9-21.9h-0.2v17.8c0,1.6-0.3,3-1,4.2c-0.6,1.3-1.5,2.2-2.6,2.9s-2.3,1.1-3.8,1.1c-2.2,0-3.9-0.7-5.3-2.2
			C334.9,769.5,334.3,767.5,334.3,765.1z"/>
	</g>
	<g class="st2">
		<path class="st0" d="M439.9,726.1v42.2c0,5.7-1.2,10.5-3.5,14.5c-2.3,3.9-5.6,7-9.8,8.9c-4.2,1.9-9.2,3-14.7,3
			c-2.3,0-5.4-0.4-9.1-1.2c-3.8-0.7-7-2-9.8-3.7c-2.8-1.7-4.1-3.7-4.1-6.1c0-1.4,0.6-2.8,1.9-4.2c1.3-1.5,2.6-2.1,4-2.1
			c1.3,0,3.3,0.5,6,1.6c2.8,1.1,4.9,1.8,6.3,2.3c1.5,0.4,3.5,0.7,5.9,0.7c2.3,0,4.5-0.4,6.3-1.4c1.9-1,3.4-2.2,4.4-3.9
			c1.1-1.7,1.6-3.8,1.6-6.2V767h-0.2c-3.2,4.7-8,6.9-14.7,6.9c-3.7,0-7-0.7-9.8-2.2c-2.9-1.5-5.2-3.6-7.1-6.2
			c-1.9-2.6-3.4-5.7-4.2-9c-1-3.4-1.4-6.9-1.4-10.6s0.5-7.2,1.7-10.6c1.1-3.4,2.8-6.5,4.9-9.1c2.1-2.6,4.7-4.8,7.7-6.3
			c3-1.6,6.2-2.3,9.8-2.3c1.7,0,3.5,0.2,5.2,0.7c1.7,0.5,3.3,1.3,4.8,2.3c1.5,1.1,2.6,2.2,3.5,3.6c1-4,3.4-6.1,7.3-6.1
			c1.4,0,2.6,0.3,3.8,1.1c1.1,0.6,2,1.6,2.6,2.9C439.6,723.2,439.9,724.6,439.9,726.1z M425.3,746c0-2.4-0.4-4.9-1.3-7.2
			s-2.1-4.3-3.9-5.8c-1.8-1.5-3.9-2.2-6.3-2.2c-2.3,0-4.4,0.7-6.1,2.2c-1.8,1.5-3.1,3.3-3.9,5.5c-0.8,2.2-1.3,4.5-1.3,7
			c0,2.8,0.4,5.2,1.3,7.4c0.8,2.2,2.1,4,3.9,5.4c1.7,1.4,3.8,2,6.2,2c3.7,0,6.5-1.4,8.5-4.2C424.3,753.4,425.3,750.1,425.3,746z"/>
		<path class="st0" d="M451.4,752.5v-26.3c0-2.4,0.6-4.3,2-5.9c1.4-1.5,3.1-2.2,5.3-2.2c1.4,0,2.6,0.3,3.8,1.1
			c1.1,0.6,2,1.6,2.6,2.9c0.6,1.3,1,2.6,1,4.2v26c0,2.9,1,5.2,2.8,6.9c1.9,1.7,4,2.5,6.7,2.5c1.7,0,3.3-0.4,4.8-1.2
			c1.4-0.7,2.5-1.8,3.5-3.3c0.8-1.4,1.3-3.2,1.3-5.1v-26c0-2.4,0.6-4.3,2-5.9c1.4-1.5,3.1-2.2,5.3-2.2c1.4,0,2.6,0.3,3.8,1.1
			c1.1,0.6,2,1.6,2.6,2.9s1,2.6,1,4.2v26.3c0,4.3-1,8.1-2.8,11.3c-1.9,3.2-4.7,5.7-8.3,7.4c-3.7,1.7-8,2.6-13,2.6
			c-7.6,0-13.5-1.9-17.8-5.7C453.5,764.3,451.4,759.2,451.4,752.5z"/>
		<path class="st0" d="M518.1,696.1c1.5,0,2.9,0.4,4,1.2c1.3,0.7,2.2,1.8,3.1,3c0.7,1.3,1.2,2.5,1.2,3.9c0,2.3-0.8,4.2-2.4,5.9
			s-3.5,2.5-5.8,2.5c-2.1,0-4-0.8-5.7-2.5c-1.7-1.7-2.5-3.7-2.5-5.8s0.8-3.9,2.5-5.6C514,697,515.9,696.1,518.1,696.1z M510.8,765.1
			v-38.9c0-2.4,0.6-4.3,2-5.9c1.4-1.5,3.1-2.2,5.3-2.2c1.4,0,2.6,0.3,3.8,1.1c1.1,0.6,2,1.6,2.6,2.9s1,2.6,1,4.2v38.9
			c0,1.6-0.3,3-1,4.2c-0.6,1.3-1.5,2.2-2.6,2.9c-1.2,0.6-2.3,1.1-3.8,1.1c-2.2,0-3.9-0.7-5.3-2.2
			C511.4,769.5,510.8,767.5,510.8,765.1z"/>
		<path class="st0" d="M586.7,702.7v62.5c0,1.6-0.3,3-1,4.2c-0.6,1.3-1.5,2.2-2.6,2.9c-1.2,0.6-2.3,1.1-3.8,1.1c-3.9,0-6.3-2-7.3-6
			c-1.4,2.1-3.3,3.8-5.7,5s-5.1,1.8-7.7,1.8c-4.7,0-8.8-1.3-12.5-3.9c-3.7-2.6-6.6-6-8.6-10.3c-2-4.2-3-8.7-3-13.3
			c0-5,0.8-9.6,2.6-14.1c1.8-4.4,4.4-8,8-10.8c3.6-2.8,7.8-4.1,12.8-4.1c1.7,0,3.3,0.2,5,0.5c1.7,0.4,3.2,1,4.8,1.7
			c1.5,0.7,2.9,1.7,4.2,2.9v-19.9c0-2.4,0.6-4.3,2-5.9c1.4-1.5,3.1-2.2,5.3-2.2c1.4,0,2.6,0.3,3.8,1.1c1.1,0.6,2,1.6,2.6,2.9
			C586.3,699.6,586.7,701.1,586.7,702.7z M572.1,745.3c0-3.9-1-7.3-3-10.2c-2-2.9-4.9-4.2-8.5-4.2c-2.3,0-4.4,0.7-6.1,2.2
			c-1.7,1.5-3.1,3.4-3.9,5.6c-0.8,2.3-1.3,4.7-1.3,7.1c0,1.7,0.2,3.4,0.7,5.2c0.5,1.8,1.3,3.4,2.2,4.9c1,1.5,2.1,2.5,3.6,3.4
			s3.1,1.3,4.9,1.3c2.4,0,4.5-0.7,6.3-2.2c1.8-1.5,3.1-3.4,3.9-5.8C571.6,750.2,572.1,747.7,572.1,745.3z"/>
		<path class="st0" d="M641,750.6h-31.1c0.5,3.5,2,6.1,4.5,7.9c2.5,1.8,5.6,2.6,9.2,2.6c2.2,0,4.1-0.3,5.6-1.1
			c1.6-0.7,3.5-1.7,5.8-3s4-1.9,5.1-1.9c1,0,2,0.3,2.9,1c1,0.6,1.7,1.4,2.2,2.3c0.5,1,0.8,2,0.8,3.1c0,1.5-0.7,3.1-2.1,4.5
			c-1.4,1.5-3.3,2.9-5.6,4c-2.3,1.2-5,2.1-7.8,2.9c-3,0.7-5.7,1.1-8.3,1.1c-5.3,0-10-1.2-14.3-3.6s-7.4-5.8-9.7-10
			c-2.3-4.2-3.4-9.1-3.4-14.5c0-3.6,0.6-7.2,2-10.6c1.3-3.4,3.2-6.5,5.5-9.2c2.3-2.6,5.1-4.8,8.4-6.2s6.8-2.2,10.5-2.2
			c3.8,0,7.3,0.7,10.6,2.3c3.3,1.6,6,3.6,8.4,6.2c2.3,2.5,4,5.4,5.4,8.6c1.3,3.2,1.9,6.2,1.9,9.4C647.4,748.4,645.3,750.6,641,750.6
			z M609.5,740.7h23.3c-0.4-3.4-1.6-6-3.7-8c-2-2-4.8-3.1-7.9-3.1s-5.7,1.1-7.8,3.2C611.2,734.8,610,737.5,609.5,740.7z"/>
	</g>
</g>
</svg>
